<?xml version="1.0" encoding="UTF-8"?>
<svg xmlns="http://www.w3.org/2000/svg" xmlns:xlink="http://www.w3.org/1999/xlink" width="100px" height="100px" viewBox="0 0 100 100" version="1.1">
<g id="surface8">
<path style=" stroke:none;fill-rule:nonzero;fill:rgb(31.37255%,34.901962%,78.823531%);fill-opacity:1;" d="M 62.652344 60.660156 L 62.652344 44.929688 C 62.652344 44.539062 62.792969 44.203125 63.074219 43.925781 C 63.359375 43.648438 63.699219 43.507812 64.101562 43.507812 L 80.359375 43.507812 C 80.726562 43.507812 81.082031 43.578125 81.421875 43.714844 C 81.761719 43.851562 82.058594 44.050781 82.320312 44.304688 C 82.578125 44.558594 82.78125 44.851562 82.921875 45.1875 C 83.0625 45.519531 83.132812 45.863281 83.132812 46.226562 L 83.132812 60.660156 C 83.132812 61.316406 83.066406 61.964844 82.9375 62.609375 C 82.804688 63.253906 82.613281 63.878906 82.355469 64.484375 C 82.097656 65.089844 81.785156 65.664062 81.414062 66.210938 C 81.039062 66.757812 80.617188 67.261719 80.144531 67.726562 C 79.671875 68.191406 79.15625 68.605469 78.597656 68.96875 C 78.039062 69.332031 77.453125 69.640625 76.832031 69.894531 C 76.214844 70.144531 75.578125 70.332031 74.917969 70.460938 C 74.261719 70.589844 73.597656 70.652344 72.929688 70.652344 L 72.855469 70.652344 C 72.183594 70.652344 71.519531 70.589844 70.863281 70.460938 C 70.207031 70.332031 69.566406 70.144531 68.949219 69.894531 C 68.328125 69.640625 67.742188 69.332031 67.183594 68.96875 C 66.628906 68.605469 66.113281 68.191406 65.640625 67.726562 C 65.164062 67.261719 64.742188 66.757812 64.371094 66.210938 C 63.996094 65.664062 63.683594 65.089844 63.425781 64.484375 C 63.171875 63.878906 62.976562 63.253906 62.847656 62.609375 C 62.714844 61.964844 62.652344 61.316406 62.652344 60.660156 Z M 62.652344 60.660156 "/>
<path style=" stroke:none;fill-rule:nonzero;fill:rgb(31.37255%,34.901962%,78.823531%);fill-opacity:1;" d="M 79.519531 33.476562 C 79.519531 33.902344 79.476562 34.324219 79.390625 34.742188 C 79.304688 35.160156 79.179688 35.566406 79.011719 35.960938 C 78.847656 36.355469 78.640625 36.730469 78.402344 37.082031 C 78.160156 37.4375 77.882812 37.765625 77.578125 38.066406 C 77.269531 38.367188 76.933594 38.636719 76.574219 38.875 C 76.210938 39.109375 75.828125 39.3125 75.425781 39.472656 C 75.023438 39.636719 74.609375 39.761719 74.183594 39.84375 C 73.757812 39.925781 73.328125 39.96875 72.890625 39.96875 C 72.457031 39.96875 72.023438 39.925781 71.597656 39.84375 C 71.171875 39.761719 70.757812 39.636719 70.355469 39.472656 C 69.953125 39.3125 69.570312 39.109375 69.210938 38.875 C 68.847656 38.636719 68.511719 38.367188 68.207031 38.066406 C 67.898438 37.765625 67.625 37.4375 67.382812 37.082031 C 67.140625 36.730469 66.9375 36.355469 66.769531 35.960938 C 66.601562 35.566406 66.476562 35.160156 66.390625 34.742188 C 66.308594 34.324219 66.265625 33.902344 66.265625 33.476562 C 66.265625 33.050781 66.308594 32.628906 66.390625 32.210938 C 66.476562 31.792969 66.601562 31.386719 66.769531 30.992188 C 66.9375 30.597656 67.140625 30.226562 67.382812 29.871094 C 67.625 29.515625 67.898438 29.1875 68.207031 28.886719 C 68.511719 28.585938 68.847656 28.316406 69.210938 28.078125 C 69.570312 27.84375 69.953125 27.644531 70.355469 27.480469 C 70.757812 27.316406 71.171875 27.195312 71.597656 27.109375 C 72.023438 27.027344 72.457031 26.984375 72.890625 26.984375 C 73.328125 26.984375 73.757812 27.027344 74.183594 27.109375 C 74.609375 27.195312 75.023438 27.316406 75.425781 27.480469 C 75.828125 27.644531 76.210938 27.84375 76.574219 28.078125 C 76.933594 28.316406 77.269531 28.585938 77.578125 28.886719 C 77.882812 29.1875 78.160156 29.515625 78.402344 29.871094 C 78.640625 30.226562 78.847656 30.597656 79.011719 30.992188 C 79.179688 31.386719 79.304688 31.792969 79.390625 32.210938 C 79.476562 32.628906 79.519531 33.050781 79.519531 33.476562 Z M 79.519531 33.476562 "/>
<path style=" stroke:none;fill-rule:nonzero;fill:rgb(31.37255%,34.901962%,78.823531%);fill-opacity:1;" d="M 72.113281 71.386719 C 71.976562 71.382812 71.835938 71.375 71.691406 71.363281 C 71.832031 71.375 71.972656 71.382812 72.113281 71.386719 Z M 72.113281 71.386719 "/>
<path style=" stroke:none;fill-rule:nonzero;fill:rgb(31.37255%,34.901962%,78.823531%);fill-opacity:1;" d="M 72.304688 71.394531 L 72.210938 71.390625 Z M 72.304688 71.394531 "/>
<path style=" stroke:none;fill-rule:nonzero;fill:rgb(48.235294%,51.372552%,92.156863%);fill-opacity:1;" d="M 61.445312 30.527344 C 61.445312 31.144531 61.382812 31.761719 61.261719 32.367188 C 61.136719 32.976562 60.953125 33.566406 60.710938 34.140625 C 60.46875 34.710938 60.171875 35.257812 59.820312 35.773438 C 59.46875 36.289062 59.070312 36.765625 58.621094 37.203125 C 58.175781 37.640625 57.6875 38.03125 57.160156 38.375 C 56.636719 38.722656 56.082031 39.011719 55.496094 39.25 C 54.910156 39.488281 54.308594 39.664062 53.6875 39.785156 C 53.066406 39.90625 52.441406 39.96875 51.808594 39.96875 C 51.175781 39.96875 50.546875 39.90625 49.925781 39.785156 C 49.304688 39.664062 48.703125 39.488281 48.117188 39.25 C 47.535156 39.011719 46.980469 38.722656 46.453125 38.375 C 45.925781 38.03125 45.4375 37.640625 44.992188 37.203125 C 44.542969 36.765625 44.144531 36.289062 43.792969 35.773438 C 43.441406 35.257812 43.144531 34.710938 42.902344 34.140625 C 42.660156 33.566406 42.476562 32.976562 42.355469 32.367188 C 42.230469 31.761719 42.167969 31.144531 42.167969 30.527344 C 42.167969 29.90625 42.230469 29.292969 42.355469 28.683594 C 42.476562 28.078125 42.660156 27.484375 42.902344 26.914062 C 43.144531 26.339844 43.441406 25.796875 43.792969 25.28125 C 44.144531 24.765625 44.542969 24.289062 44.992188 23.851562 C 45.4375 23.410156 45.925781 23.019531 46.453125 22.675781 C 46.980469 22.332031 47.535156 22.039062 48.117188 21.804688 C 48.703125 21.566406 49.304688 21.386719 49.925781 21.265625 C 50.546875 21.144531 51.175781 21.085938 51.808594 21.085938 C 52.441406 21.085938 53.066406 21.144531 53.6875 21.265625 C 54.308594 21.386719 54.910156 21.566406 55.496094 21.804688 C 56.082031 22.039062 56.636719 22.332031 57.160156 22.675781 C 57.6875 23.019531 58.175781 23.410156 58.621094 23.851562 C 59.070312 24.289062 59.46875 24.765625 59.820312 25.28125 C 60.171875 25.796875 60.46875 26.339844 60.710938 26.914062 C 60.953125 27.484375 61.136719 28.078125 61.261719 28.683594 C 61.382812 29.292969 61.445312 29.90625 61.445312 30.527344 Z M 61.445312 30.527344 "/>
<path style=" stroke:none;fill-rule:nonzero;fill:rgb(48.235294%,51.372552%,92.156863%);fill-opacity:1;" d="M 67.066406 43.507812 L 38.957031 43.507812 C 38.585938 43.507812 38.226562 43.574219 37.886719 43.710938 C 37.542969 43.847656 37.238281 44.042969 36.976562 44.300781 C 36.710938 44.554688 36.507812 44.851562 36.363281 45.183594 C 36.21875 45.519531 36.148438 45.867188 36.144531 46.230469 L 36.144531 62.574219 C 36.15625 63.652344 36.277344 64.714844 36.5 65.769531 C 36.726562 66.824219 37.050781 67.847656 37.480469 68.839844 C 37.910156 69.832031 38.433594 70.773438 39.050781 71.667969 C 39.667969 72.558594 40.367188 73.382812 41.148438 74.140625 C 41.933594 74.898438 42.78125 75.574219 43.699219 76.167969 C 44.617188 76.761719 45.582031 77.265625 46.601562 77.675781 C 47.617188 78.085938 48.664062 78.394531 49.742188 78.601562 C 50.824219 78.8125 51.914062 78.914062 53.011719 78.914062 C 54.113281 78.914062 55.199219 78.8125 56.28125 78.601562 C 57.359375 78.394531 58.40625 78.085938 59.425781 77.675781 C 60.441406 77.265625 61.410156 76.761719 62.324219 76.167969 C 63.242188 75.574219 64.09375 74.898438 64.875 74.140625 C 65.65625 73.382812 66.355469 72.558594 66.972656 71.667969 C 67.589844 70.773438 68.113281 69.832031 68.542969 68.839844 C 68.972656 67.847656 69.296875 66.824219 69.523438 65.769531 C 69.75 64.714844 69.867188 63.652344 69.878906 62.574219 L 69.878906 46.230469 C 69.878906 45.867188 69.804688 45.519531 69.660156 45.183594 C 69.515625 44.851562 69.3125 44.554688 69.050781 44.300781 C 68.785156 44.042969 68.480469 43.847656 68.140625 43.710938 C 67.796875 43.574219 67.4375 43.507812 67.066406 43.507812 Z M 67.066406 43.507812 "/>
<path style=" stroke:none;fill-rule:nonzero;fill:rgb(0%,0%,0%);fill-opacity:0.2;" d="M 51.808594 43.507812 L 51.808594 67.902344 C 51.808594 68.0625 51.792969 68.21875 51.757812 68.375 C 51.703125 68.695312 51.59375 68.996094 51.429688 69.277344 C 51.265625 69.558594 51.058594 69.800781 50.804688 70.011719 C 50.554688 70.21875 50.273438 70.378906 49.960938 70.488281 C 49.652344 70.601562 49.332031 70.65625 49 70.652344 L 38.363281 70.652344 C 38.128906 70.269531 37.914062 69.878906 37.722656 69.472656 C 37.53125 69.082031 37.363281 68.695312 37.203125 68.292969 C 36.496094 66.449219 36.140625 64.539062 36.144531 62.570312 L 36.144531 46.234375 C 36.144531 45.871094 36.21875 45.523438 36.359375 45.1875 C 36.503906 44.851562 36.707031 44.554688 36.96875 44.300781 C 37.234375 44.046875 37.539062 43.847656 37.878906 43.710938 C 38.222656 43.574219 38.582031 43.507812 38.953125 43.507812 Z M 51.808594 43.507812 "/>
<path style=" stroke:none;fill-rule:nonzero;fill:rgb(0%,0%,0%);fill-opacity:0.2;" d="M 51.808594 36.816406 L 51.808594 39.96875 C 51.402344 39.96875 51.003906 39.945312 50.601562 39.898438 C 49.75 39.792969 48.929688 39.578125 48.136719 39.257812 C 47.34375 38.9375 46.609375 38.519531 45.929688 38.007812 C 45.25 37.496094 44.648438 36.90625 44.128906 36.238281 C 43.609375 35.570312 43.191406 34.84375 42.867188 34.066406 L 49 34.066406 C 49.371094 34.066406 49.730469 34.136719 50.074219 34.273438 C 50.417969 34.414062 50.722656 34.613281 50.988281 34.871094 C 51.25 35.128906 51.453125 35.425781 51.59375 35.765625 C 51.738281 36.101562 51.808594 36.453125 51.808594 36.816406 Z M 51.808594 36.816406 "/>
<path style=" stroke:none;fill-rule:nonzero;fill:rgb(0%,0%,0%);fill-opacity:0.0980392;" d="M 53.011719 43.507812 L 53.011719 65.542969 C 53.007812 66.0625 52.902344 66.5625 52.695312 67.042969 C 52.492188 67.519531 52.199219 67.945312 51.824219 68.3125 C 51.449219 68.679688 51.019531 68.964844 50.53125 69.164062 C 50.039062 69.367188 49.53125 69.46875 49 69.472656 L 37.722656 69.472656 C 37.53125 69.082031 37.363281 68.695312 37.203125 68.292969 C 36.496094 66.449219 36.140625 64.539062 36.144531 62.570312 L 36.144531 46.234375 C 36.144531 45.871094 36.21875 45.523438 36.359375 45.1875 C 36.503906 44.851562 36.707031 44.554688 36.96875 44.300781 C 37.234375 44.046875 37.539062 43.847656 37.878906 43.710938 C 38.222656 43.574219 38.582031 43.507812 38.953125 43.507812 Z M 53.011719 43.507812 "/>
<path style=" stroke:none;fill-rule:nonzero;fill:rgb(0%,0%,0%);fill-opacity:0.0980392;" d="M 53.011719 36.816406 L 53.011719 39.898438 C 52.207031 39.992188 51.40625 39.992188 50.601562 39.898438 C 49.75 39.792969 48.929688 39.578125 48.136719 39.257812 C 47.34375 38.9375 46.609375 38.519531 45.929688 38.007812 C 45.25 37.496094 44.648438 36.90625 44.128906 36.238281 C 43.609375 35.570312 43.191406 34.84375 42.867188 34.066406 C 42.710938 33.683594 42.578125 33.289062 42.46875 32.886719 L 49 32.886719 C 49.53125 32.886719 50.042969 32.988281 50.53125 33.191406 C 51.023438 33.390625 51.457031 33.671875 51.832031 34.042969 C 52.207031 34.410156 52.5 34.835938 52.703125 35.316406 C 52.90625 35.796875 53.011719 36.296875 53.011719 36.816406 Z M 53.011719 36.816406 "/>
<path style=" stroke:none;fill-rule:nonzero;fill:rgb(0%,0%,0%);fill-opacity:0.2;" d="M 51.808594 43.507812 L 51.808594 65.542969 C 51.808594 65.90625 51.738281 66.257812 51.59375 66.597656 C 51.453125 66.933594 51.25 67.230469 50.988281 67.488281 C 50.722656 67.746094 50.417969 67.945312 50.074219 68.085938 C 49.730469 68.222656 49.371094 68.292969 49 68.292969 L 37.203125 68.292969 C 36.496094 66.449219 36.140625 64.539062 36.144531 62.570312 L 36.144531 46.234375 C 36.144531 45.871094 36.21875 45.523438 36.359375 45.1875 C 36.503906 44.851562 36.707031 44.554688 36.96875 44.300781 C 37.234375 44.046875 37.539062 43.847656 37.878906 43.710938 C 38.222656 43.574219 38.582031 43.507812 38.953125 43.507812 Z M 51.808594 43.507812 "/>
<path style=" stroke:none;fill-rule:nonzero;fill:rgb(0%,0%,0%);fill-opacity:0.2;" d="M 51.808594 36.816406 L 51.808594 39.96875 C 51.402344 39.96875 51.003906 39.945312 50.601562 39.898438 C 49.75 39.792969 48.929688 39.578125 48.136719 39.257812 C 47.34375 38.9375 46.609375 38.519531 45.929688 38.007812 C 45.25 37.496094 44.648438 36.90625 44.128906 36.238281 C 43.609375 35.570312 43.191406 34.84375 42.867188 34.066406 L 49 34.066406 C 49.371094 34.066406 49.730469 34.136719 50.074219 34.273438 C 50.417969 34.414062 50.722656 34.613281 50.988281 34.871094 C 51.25 35.128906 51.453125 35.425781 51.59375 35.765625 C 51.738281 36.101562 51.808594 36.453125 51.808594 36.816406 Z M 51.808594 36.816406 "/>
<path style=" stroke:none;fill-rule:nonzero;fill:rgb(0%,0%,0%);fill-opacity:0.0980392;" d="M 50.601562 36.816406 L 50.601562 39.898438 C 49.75 39.792969 48.929688 39.578125 48.136719 39.257812 C 47.34375 38.9375 46.609375 38.519531 45.929688 38.007812 C 45.25 37.496094 44.648438 36.90625 44.128906 36.238281 C 43.609375 35.570312 43.191406 34.84375 42.867188 34.066406 L 47.796875 34.066406 C 48.167969 34.066406 48.527344 34.136719 48.871094 34.273438 C 49.214844 34.414062 49.519531 34.613281 49.78125 34.871094 C 50.046875 35.128906 50.246094 35.425781 50.390625 35.765625 C 50.53125 36.101562 50.601562 36.453125 50.601562 36.816406 Z M 50.601562 36.816406 "/>
<path style=" stroke:none;fill-rule:nonzero;fill:rgb(0%,0%,0%);fill-opacity:0.0980392;" d="M 38.953125 43.507812 L 50.601562 43.507812 L 50.601562 65.542969 C 50.601562 65.90625 50.53125 66.257812 50.390625 66.597656 C 50.246094 66.933594 50.046875 67.230469 49.78125 67.488281 C 49.519531 67.746094 49.214844 67.945312 48.871094 68.085938 C 48.527344 68.222656 48.167969 68.292969 47.796875 68.292969 L 37.203125 68.292969 C 36.496094 66.449219 36.140625 64.539062 36.144531 62.570312 L 36.144531 46.234375 C 36.144531 45.871094 36.21875 45.523438 36.359375 45.1875 C 36.503906 44.851562 36.707031 44.554688 36.96875 44.300781 C 37.234375 44.046875 37.539062 43.847656 37.878906 43.710938 C 38.222656 43.574219 38.582031 43.507812 38.953125 43.507812 Z M 38.953125 43.507812 "/>
<path style=" stroke:none;fill-rule:nonzero;fill:rgb(29.411766%,32.549021%,73.725492%);fill-opacity:1;" d="M 19.679688 34.066406 L 47.792969 34.066406 C 48.164062 34.066406 48.523438 34.136719 48.867188 34.277344 C 49.210938 34.417969 49.515625 34.617188 49.777344 34.875 C 50.042969 35.132812 50.246094 35.429688 50.386719 35.765625 C 50.53125 36.105469 50.601562 36.457031 50.601562 36.820312 L 50.601562 64.359375 C 50.601562 64.722656 50.53125 65.074219 50.386719 65.414062 C 50.246094 65.75 50.042969 66.046875 49.777344 66.304688 C 49.515625 66.566406 49.210938 66.761719 48.867188 66.902344 C 48.523438 67.042969 48.164062 67.113281 47.792969 67.113281 L 19.679688 67.113281 C 19.304688 67.113281 18.949219 67.042969 18.601562 66.902344 C 18.257812 66.761719 17.953125 66.566406 17.691406 66.304688 C 17.429688 66.046875 17.226562 65.75 17.082031 65.414062 C 16.9375 65.074219 16.867188 64.722656 16.867188 64.359375 L 16.867188 36.820312 C 16.867188 36.457031 16.9375 36.105469 17.082031 35.765625 C 17.226562 35.429688 17.429688 35.132812 17.691406 34.875 C 17.953125 34.617188 18.257812 34.417969 18.601562 34.277344 C 18.949219 34.136719 19.304688 34.066406 19.679688 34.066406 Z M 19.679688 34.066406 "/>
<path style=" stroke:none;fill-rule:nonzero;fill:rgb(100%,100%,100%);fill-opacity:1;" d="M 40.972656 44.132812 L 35.476562 44.132812 L 35.476562 59.507812 L 31.96875 59.507812 L 31.96875 44.132812 L 26.496094 44.132812 L 26.496094 41.148438 L 40.972656 41.148438 Z M 40.972656 44.132812 "/>
</g>
</svg>
